<?xml version="1.0" encoding="UTF-8"?>
<svg id="Ebene_1" xmlns="http://www.w3.org/2000/svg" version="1.1" width="160" height="25" viewBox="20 41 737.45 100.77">
  <!-- Generator: Adobe Illustrator 29.0.1, SVG Export Plug-In . SVG Version: 2.1.0 Build 192)  -->
  <defs>
    <style>
      .st0 {
        fill: #f0861e;
      }
    </style>
  </defs>
  <path class="st0" d="M29.44,42.24h21.08l8.24,77.9h.28l8.79-77.9h22.89l9.07,78.04h.28l7.96-78.04h21.08l-15.36,99.67h-25.69l-8.66-76.22h-.28l-8.65,76.22h-25.69l-15.36-99.67Z"/>
  <path class="st0" d="M196.96,141.91h-13.26l-2.93-7.26c-1.03,1.58-2.05,2.93-3.07,4.05-1.03,1.12-2.16,2.07-3.42,2.86-1.26.79-2.68,1.37-4.26,1.75-1.58.37-3.49.56-5.72.56-5.96,0-10.75-1.67-14.38-5.03-3.63-3.35-5.44-8.24-5.44-14.66v-60.45c0-8.28,1.95-14.26,5.86-17.94,3.91-3.68,10.52-5.51,19.82-5.51,4.93,0,9.1.44,12.49,1.33,3.4.89,6.16,2.28,8.31,4.19,2.14,1.91,3.68,4.35,4.61,7.33.93,2.98,1.4,6.52,1.4,10.61v6.14h-20.38v-6c0-1.95-.44-3.35-1.33-4.19-.89-.84-2.4-1.26-4.54-1.26s-3.65.42-4.54,1.26c-.89.84-1.33,2.24-1.33,4.19v56.4c0,1.96.44,3.35,1.33,4.19.88.84,2.4,1.26,4.54,1.26s3.65-.42,4.54-1.26c.88-.84,1.33-2.23,1.33-4.19v-21.36h-6v-18.15h26.38v61.14Z"/>
  <path class="st0" d="M217.61,114.27v-16.75h32.25v16.75h-32.25Z"/>
  <path class="st0" d="M323.01,141.91h-13.26l-2.93-7.26c-1.03,1.58-2.05,2.93-3.07,4.05-1.03,1.12-2.16,2.07-3.42,2.86-1.26.79-2.68,1.37-4.26,1.75-1.58.37-3.49.56-5.72.56-5.96,0-10.75-1.67-14.38-5.03-3.63-3.35-5.44-8.24-5.44-14.66v-60.45c0-8.28,1.95-14.26,5.86-17.94,3.91-3.68,10.52-5.51,19.82-5.51,4.93,0,9.1.44,12.49,1.33,3.4.89,6.16,2.28,8.31,4.19,2.14,1.91,3.68,4.35,4.61,7.33.93,2.98,1.4,6.52,1.4,10.61v6.14h-20.38v-6c0-1.95-.44-3.35-1.33-4.19-.89-.84-2.4-1.26-4.54-1.26s-3.65.42-4.54,1.26c-.89.84-1.33,2.24-1.33,4.19v56.4c0,1.96.44,3.35,1.33,4.19.88.84,2.4,1.26,4.54,1.26s3.65-.42,4.54-1.26c.88-.84,1.33-2.23,1.33-4.19v-21.36h-6v-18.15h26.38v61.14Z"/>
  <path class="st0" d="M343.95,42.24h41.88v18.15h-21.5v20.38h20.52v18.15h-20.52v24.85h21.5v18.15h-41.88V42.24Z"/>
  <path class="st0" d="M433.85,72.25v-5.58c0-5.49-1.95-8.24-5.86-8.24-2.14,0-3.65.63-4.54,1.88-.89,1.26-1.33,3.38-1.33,6.35s.79,5.37,2.37,7.47c1.58,2.09,3.56,4.1,5.93,6,2.37,1.91,4.96,3.86,7.75,5.86,2.79,2,5.37,4.38,7.75,7.12,2.37,2.75,4.35,6,5.93,9.77,1.58,3.77,2.37,8.35,2.37,13.75s-.44,9.56-1.33,13.05c-.89,3.49-2.35,6.28-4.4,8.38-2.05,2.09-4.75,3.58-8.1,4.47-3.35.88-7.54,1.33-12.56,1.33-4.65,0-8.63-.4-11.93-1.19-3.31-.79-6-2.09-8.1-3.91-2.09-1.81-3.63-4.26-4.61-7.33-.98-3.07-1.47-6.93-1.47-11.59v-9.35h20.38v6.98c0,5.49,1.95,8.24,5.86,8.24,2.14,0,3.65-.63,4.54-1.88.88-1.26,1.33-3.37,1.33-6.35,0-3.44-.82-6.35-2.44-8.72-1.63-2.37-3.63-4.54-6-6.49-2.37-1.95-4.93-3.93-7.68-5.93-2.75-2-5.3-4.35-7.68-7.05-2.37-2.7-4.35-5.91-5.93-9.63-1.58-3.72-2.37-8.38-2.37-13.96,0-4.47.44-8.31,1.33-11.52.88-3.21,2.37-5.84,4.47-7.89,2.09-2.05,4.79-3.56,8.1-4.54,3.3-.98,7.42-1.47,12.35-1.47,8.65,0,15.1,1.81,19.33,5.44,4.23,3.63,6.35,9.86,6.35,18.7v7.82h-19.82Z"/>
  <path class="st0" d="M523.61,120.41c0,4.66-.54,8.49-1.61,11.52-1.07,3.03-2.68,5.42-4.82,7.19-2.14,1.77-4.86,3-8.17,3.7-3.3.7-7.19,1.05-11.66,1.05s-8.35-.35-11.66-1.05c-3.3-.7-6.03-1.93-8.17-3.7-2.14-1.77-3.75-4.16-4.82-7.19-1.07-3.02-1.61-6.86-1.61-11.52V42.24h20.38v75.1c0,3.54.44,5.82,1.33,6.84.88,1.03,2.39,1.54,4.54,1.54s3.65-.51,4.54-1.54c.88-1.02,1.33-3.3,1.33-6.84V42.24h20.38v78.17Z"/>
  <path class="st0" d="M543.15,63.73c0-8.28,1.95-14.26,5.86-17.94,3.91-3.68,10.52-5.51,19.82-5.51s15.92,1.84,19.82,5.51c3.91,3.68,5.86,9.66,5.86,17.94v14.1h-20.38v-14.94c0-1.49-.54-2.6-1.6-3.35-1.07-.74-2.3-1.12-3.7-1.12-1.86,0-3.21.49-4.05,1.46-.84.98-1.26,2.82-1.26,5.51v53.33c0,2.7.42,4.54,1.26,5.51.84.98,2.19,1.46,4.05,1.46,1.4,0,2.63-.37,3.7-1.12,1.07-.74,1.6-1.86,1.6-3.35v-18.43h20.38v17.59c0,8.28-1.95,14.26-5.86,17.94-3.91,3.67-10.52,5.51-19.82,5.51s-15.91-1.84-19.82-5.51c-3.91-3.68-5.86-9.66-5.86-17.94v-56.68Z"/>
  <path class="st0" d="M614.06,42.24h20.38v38.53h11.73v-38.53h20.38v99.67h-20.38v-42.99h-11.73v42.99h-20.38V42.24Z"/>
  <path class="st0" d="M698.24,60.38h-15.08v-18.15h50.53v18.15h-15.08v81.52h-20.38V60.38Z"/>
</svg>
